<svg xmlns="http://www.w3.org/2000/svg" version="1.1" xmlns:xlink="http://www.w3.org/1999/xlink" xmlns:svgjs="http://svgjs.dev/svgjs" width="1000" height="1125" viewBox="0 0 1000 1125"><g transform="matrix(1,0,0,1,1.7053025658242404e-13,0)"><svg viewBox="0 0 320 360" data-background-color="#0c0c39" preserveAspectRatio="xMidYMid meet" height="1125" width="1000" xmlns="http://www.w3.org/2000/svg" xmlns:xlink="http://www.w3.org/1999/xlink"><g id="tight-bounds" transform="matrix(1,0,0,1,0,0)"><svg viewBox="0 0 320 360" height="360" width="320"><g><svg></svg></g><g><svg viewBox="0 0 320 360" height="360" width="320"><g><path d="M20.961 227.22l3.726 4.658-1.863-6.056c-0.466-2.795-3.726 0.466-1.863 1.398M25.153 224.425c1.397 2.329 2.795 4.658 2.795 6.987 0 3.261 2.795 4.658 5.123 5.589-3.261-3.726-5.124-13.974-7.918-12.576M204.017 26.929c7.918 0 15.371-0.932 23.756 0.931 20.495 5.124 37.729 15.371 49.374 29.811l32.606 52.169c1.397 13.042 4.192 27.482 3.726 43.319 3.261 0 2.795-4.658 6.521-5.59-3.726 9.316-5.59 20.961-6.521 34.469-2.329-7.453 0-18.632 0.466-24.687-3.261 5.124-5.124 1.397-5.124-0.932 0.466-3.726-1.397-3.261-2.795-4.658-5.124-4.658-8.384-9.782-12.11-17.7 2.329-6.055 2.795-14.905-4.658-19.563-2.329-1.397-5.124-3.726-6.521-7.453-1.863-5.124-5.124-11.179-4.193-19.097 0.466-2.329-6.987 5.124-11.179 1.863-18.166-12.576-36.332-27.016-58.224-39.127-11.645 0-20.029-4.192-24.221-9.316-3.726-4.658-0.932-10.713 4.658-11.179 3.261 0 6.987-0.932 9.782 0.932 0.466-1.863 2.329-4.192 4.657-4.192M157.904 16.215l0.932 0.466c4.658 0.932 6.987 7.453 12.11 5.124 0 3.261 0.466 6.521-0.466 8.85-1.397 3.726-5.59 3.726-8.85 3.726-31.208-1.863-49.374 11.179-68.471 22.358-5.124 3.261-10.713 5.59-14.906 9.782-20.029 18.632-41.921 35.866-47.045 70.335l-4.192 38.195c-0.466 4.192-5.124 8.384-4.192 13.508l3.26 22.824c-3.261-3.261-5.124 0.932-4.192 2.795 0.466 1.397 2.329 6.055 5.124 1.863 3.726 6.987 7.453 20.495 12.576 26.55 15.837 18.632 36.332 35.4 53.101 52.169 4.192-0.932 7.453-0.932 8.384-3.727 1.397 2.795-1.397 5.59-3.726 6.056 7.453 4.658 15.837 8.85 27.016 9.781 14.44 0.932 27.948 3.261 40.524 6.522 6.521-1.863 13.042-2.795 20.029-3.261 2.329 0 3.726-3.726 6.521-4.658l0.466-4.658c2.795 4.192 2.329-1.397 0.466-4.192 3.261 2.795 4.192 5.124 5.589 6.987 0-1.397 3.726-6.521 3.727-0.466l0.931-6.055c1.397-0.932 1.863 5.124 3.261 0.931 1.397-4.192 4.192-0.932 6.987-2.329-0.932 1.863-0.466 5.59 2.794 3.261l3.727-3.261c2.329 5.59 6.055 3.261 7.918 2.329 20.495-13.042 40.99-28.413 60.553-43.784l-0.466 6.055 2.329-7.453c2.329 2.329 4.192 0.466 5.124-0.931 2.795-4.658 6.521-9.316 12.577-13.508-7.453 20.029-16.303 35.866-27.482 48.908l-4.658 5.59c0 3.261-0.932 7.453-4.658 7.918-1.863 0.466-5.59-0.932-8.384 1.863-1.397 1.863 3.261 5.59-0.466 2.795-3.261-2.329-6.521 0-10.248 0.932-2.795 0.932 1.863 3.726 2.795 5.589 0.932 1.863 1.863 3.726 1.398 6.056l-5.124-5.59c-6.055 3.261-9.782 9.316-14.906 13.974-2.329 1.863-1.397 5.124-1.397 7.918-3.261 0-6.987-0.932-8.85 0.932-1.397 1.863-0.932 4.658-0.932 7.453-4.658-0.466-5.124-7.453-9.315-6.056-4.192 0.932-8.85 1.397-12.577 3.727 2.795 5.59-4.658 2.329-3.726 3.26-6.987-4.192-13.042-7.453-20.495-4.658-15.837-5.124-35.4-2.795-49.84-0.931 0-2.329 0.466-4.658-0.466-5.124-0.932 2.329-3.726 1.397-3.26 1.397-8.85-6.055-17.7-9.782-27.016-14.905-8.384 0.932-16.303-3.261-18.632-5.59-6.521-6.055-13.974-2.795-20.029-4.192-13.042-3.261-17.7-16.769-19.098-26.084-0.932-4.658-4.658-6.521-6.055-6.056-6.055-19.563-15.371-37.263-22.824-55.429-1.863-4.658-1.397-9.316-1.397-14.44 2.329 0.932 4.658 0.466 4.192-2.794-2.329-15.371-7.918-27.016-13.974-38.195 3.261-15.837 3.726-34.469 11.179-48.443 6.521-12.576 18.632-19.098 27.016-29.811 2.795-3.726 2.795-8.85 5.59-12.11 9.316-9.316 18.632-19.098 28.879-27.482 4.658-3.726 10.247 0 17.234-1.397 2.329-8.384 11.645-15.837 20.495-13.508 3.726 0.932 11.179-8.85 13.508-9.782 3.726-1.397 1.863 3.726 1.863 6.987 8.85-6.987 20.961-10.713 32.14-14.906" fill="#fbfb35" fill-rule="nonzero" stroke="none" stroke-width="1" stroke-linecap="butt" stroke-linejoin="miter" stroke-miterlimit="10" stroke-dasharray="" stroke-dashoffset="0" font-family="none" font-weight="none" font-size="none" text-anchor="none" style="mix-blend-mode: normal" data-fill-palette-color="tertiary"></path></g><g transform="matrix(1,0,0,1,64,104.78039430497057)"><svg viewBox="0 0 192 150.43921139005886" height="150.43921139005886" width="192"><g><svg viewBox="0 0 192 150.43921139005886" height="150.43921139005886" width="192"><g><svg viewBox="0 0 192 150.43921139005886" height="150.43921139005886" width="192"><g id="textblocktransform"><svg viewBox="0 0 192 150.43921139005886" height="150.43921139005886" width="192" id="textblock"><g><svg viewBox="0 0 192 112.66012155776937" height="112.66012155776937" width="192"><g><svg viewBox="0 0 192 112.66012155776937" height="112.66012155776937" width="192"><g transform="matrix(1,0,0,1,0,0)"><svg width="192" viewBox="-4.6 -28.85 61.60831416527459 36.15" height="112.66012155776937" data-palette-color="#ffff33"><g transform="matrix(1,0,0,1,0,0)"><g><svg width="6.02846510329662" viewBox="3.16 -36.36 39.42 36.36" height="5.561394834032197" data-palette-color="#ffff33" id="scriptelement" x="49.73131161362628" y="-27.3679274170161"><path d="M3.16 0L3.16-36.36 12.64-36.36 22.66-11.93 23.08-11.93 33.1-36.36 42.58-36.36 42.58 0 35.12 0 35.12-23.67 34.82-23.67 25.41-0.18 20.33-0.18 10.92-23.76 10.62-23.76 10.62 0 3.16 0Z" opacity="1" transform="matrix(1,0,0,1,0,0)" fill="#ffff33" class="undefined-123" data-fill-palette-color="primary" id="yy-123"></path></svg></g></g><path d="M48.483-24.587C48.483-26.941 50.391-28.85 52.746-28.85 55.1-28.85 57.008-26.941 57.008-24.587 57.008-22.233 55.1-20.324 52.746-20.324 50.391-20.324 48.483-22.233 48.483-24.587ZM52.746-20.724C54.879-20.724 56.608-22.454 56.608-24.587 56.608-26.721 54.879-28.45 52.746-28.45 50.612-28.45 48.883-26.721 48.883-24.587 48.883-22.454 50.612-20.724 52.746-20.724Z" fill="#ffff33" id="scriptcircle" data-fill-palette-color="primary"></path><path d="M29.5-10.95L29.5-10.95 17.1-12.6Q9.5 4.65 2.35 6.85L2.35 6.85Q1.05 7.3 0.05 7.3L0.05 7.3Q-3.7 7.3-4.55 4.15L-4.55 4.15Q-4.6 3.95-4.6 3.73-4.6 3.5-4.53 3.18-4.45 2.85-4.2 2.95-3.95 3.05-3.7 3.9L-3.7 3.9Q-3.25 5.35-1.8 5.75L-1.8 5.75Q-0.7 5.95 0.13 5.95 0.95 5.95 1.55 5.75L1.55 5.75Q8.85 3.45 15.2-12.85L15.2-12.85 12.55-13Q11.85-13.05 11.25-13.05L11.25-13.05Q4.9-13.05 3.45-8.95L3.45-8.95Q3.2-8.4 3.2-7.9 3.2-7.4 3.5-6.9 3.8-6.4 3.33-6.28 2.85-6.15 2.55-6.6L2.55-6.6Q2-7.6 2-8.45L2-8.45Q2-11.5 3.13-12.98 4.25-14.45 5.75-14.9L5.75-14.9Q7.55-15.4 9.75-15.4L9.75-15.4 12.8-15.1Q14.4-14.95 15.85-14.65L15.85-14.65Q17.05-17.85 18.75-23.25L18.75-23.25Q16.1-20.9 12.25-20.5L12.25-20.5Q11.75-20.45 11.73-20.85 11.7-21.25 12.3-21.35L12.3-21.35Q14.45-21.55 16.73-23.55 19-25.55 20.2-28.25L20.2-28.25Q20.3-28.85 21.85-28.85 23.4-28.85 23.35-28.25L23.35-28.25Q23.05-27.5 21.13-22.48 19.2-17.45 17.8-14.25L17.8-14.25Q19.1-14 21.6-13.4L21.6-13.4Q26.7-12.25 29.85-11.9L29.85-11.9Q32.75-18.05 33.48-19.78 34.2-21.5 34.2-21.95 34.2-22.4 34.05-22.65L34.05-22.65Q34.2-24.05 36.23-26.33 38.25-28.6 40.05-28.6L40.05-28.6Q40.85-28.6 41.98-28.03 43.1-27.45 43.1-26.55L43.1-26.55Q43.1-26.35 42.85-26.5 42.6-26.65 42.5-26.65L42.5-26.65Q41.25-26.65 39.6-24.88 37.95-23.1 36.35-20.3L36.35-20.3Q33.9-15.95 32-11.7L32-11.7Q36.3-11.7 37.75-13.5L37.75-13.5Q38-13.95 38.25-13.63 38.5-13.3 38.08-12.68 37.65-12.05 36.2-11.45 34.75-10.85 31.6-10.85L31.6-10.85Q29.25-5.3 29.25-2.15L29.25-2.15Q29.25 0.3 30.68 0.3 32.1 0.3 34.93-1.9 37.75-4.1 40.25-7.45L40.25-7.45Q40.4-7.65 40.7-7.53 41-7.4 40.88-7.08 40.75-6.75 40.1-5.8L40.1-5.8Q38-2.95 34.95-0.5L34.95-0.5Q32.7 1.25 30.05 1.25L30.05 1.25Q28.7 1.25 27.98 0.45 27.25-0.35 27.18-1.05 27.1-1.75 27.1-2.35 27.1-2.95 27.3-4.2L27.3-4.2Q27.8-7.4 29.5-10.95Z" opacity="1" transform="matrix(1,0,0,1,0,0)" fill="#ffff33" class="wordmark-text-0" data-fill-palette-color="primary" id="text-0"></path></svg></g></svg></g></svg></g><g transform="matrix(1,0,0,1,18.90824842140953,139.25647241464134)"><svg viewBox="0 0 125.85599999999998 11.182738975417523" height="11.182738975417523" width="125.85599999999998"><g transform="matrix(1,0,0,1,0,0)"><svg width="125.85599999999998" viewBox="0.35 -36.25 532.84 47.35" height="11.182738975417523" data-palette-color="#3b3a7d"><path d="M0.35 0L6.85-33.45 27.65-33.45 26.3-27.4 13.8-27.4 12.35-20.1 22.65-20.1 21.35-14.05 11.2-14.05 8.45 0 0.35 0ZM24.25-19.55L24.25-19.55Q24.25-20.4 24.12-21.48 24-22.55 23.75-23.4L23.75-23.4 30.45-25.05Q31.25-23.45 31.55-21.93 31.85-20.4 31.85-19.25L31.85-19.25Q31.85-17.75 31.45-16.25 31.05-14.75 30.55-13.28 30.05-11.8 29.65-10.33 29.25-8.85 29.25-7.45L29.25-7.45Q29.25-6.8 29.5-6.38 29.75-5.95 30.4-5.95L30.4-5.95Q31.35-5.95 32.32-6.95 33.3-7.95 34.17-9.53 35.05-11.1 35.7-12.95 36.35-14.8 36.7-16.55L36.7-16.55 38.25-24.5 45.95-24.5 43.45-11.85Q42.95-9.5 42.95-7.6L42.95-7.6Q42.95-5.35 43.6-3.93 44.25-2.5 44.65-1.9L44.65-1.9 38.35 0.6Q37.6-0.25 37.22-1.4 36.85-2.55 36.85-3.75L36.85-3.75Q36.85-4.25 36.9-4.98 36.95-5.7 37.15-7.3L37.15-7.3 36.5-5.9Q34.95-2.6 32.8-1.07 30.65 0.45 27.65 0.45L27.65 0.45Q24.35 0.45 22.87-1.15 21.4-2.75 21.4-5.75L21.4-5.75Q21.4-7.7 21.85-9.58 22.3-11.45 22.82-13.18 23.35-14.9 23.8-16.5 24.25-18.1 24.25-19.55ZM60.15-6.35L60.15-1Q59.25-0.65 58.25-0.4L58.25-0.4Q57.4-0.15 56.3 0.03 55.2 0.2 54.05 0.2L54.05 0.2Q51.25 0.2 49.87-1.1 48.5-2.4 48.5-4.6L48.5-4.6Q48.5-4.95 48.55-5.35 48.6-5.75 48.7-6.15L48.7-6.15 54.35-35.25 62.15-36.25 56.75-7.95Q56.65-7.3 56.6-7.1 56.55-6.9 56.55-6.65L56.55-6.65Q56.55-6.3 56.67-6.03 56.8-5.75 57.3-5.75L57.3-5.75Q57.6-5.75 58.05-5.83 58.5-5.9 58.95-6.03 59.4-6.15 59.72-6.25 60.05-6.35 60.15-6.35L60.15-6.35ZM75.24-6.35L75.24-1Q74.34-0.65 73.34-0.4L73.34-0.4Q72.49-0.15 71.39 0.03 70.29 0.2 69.14 0.2L69.14 0.2Q66.34 0.2 64.97-1.1 63.59-2.4 63.59-4.6L63.59-4.6Q63.59-4.95 63.64-5.35 63.69-5.75 63.79-6.15L63.79-6.15 69.44-35.25 77.24-36.25 71.84-7.95Q71.74-7.3 71.69-7.1 71.64-6.9 71.64-6.65L71.64-6.65Q71.64-6.3 71.77-6.03 71.89-5.75 72.39-5.75L72.39-5.75Q72.69-5.75 73.14-5.83 73.59-5.9 74.04-6.03 74.49-6.15 74.82-6.25 75.14-6.35 75.24-6.35L75.24-6.35ZM103.84-34.05L103.84-34.05Q106.29-34.05 107.94-33.5 109.59-32.95 110.64-32.02 111.69-31.1 112.29-29.93 112.89-28.75 113.29-27.5L113.29-27.5 106.99-24.6Q106.44-26.2 105.81-27.03 105.19-27.85 103.84-27.85L103.84-27.85Q102.39-27.85 101.54-27.03 100.69-26.2 100.69-25.05L100.69-25.05Q100.69-23.6 101.34-22.85 101.99-22.1 103.04-21.35L103.04-21.35 107.44-18.1Q109.39-16.65 110.51-14.65 111.64-12.65 111.64-9.85L111.64-9.85Q111.64-7.2 110.56-5.23 109.49-3.25 107.66-1.95 105.84-0.65 103.49 0 101.14 0.65 98.59 0.65L98.59 0.65Q94.94 0.65 92.24-0.18 89.54-1 87.44-2.15L87.44-2.15 90.94-8.35Q92.79-7.25 94.64-6.43 96.49-5.6 98.44-5.6L98.44-5.6Q100.49-5.6 101.71-6.48 102.94-7.35 102.94-9.2L102.94-9.2Q102.94-10.65 102.24-11.58 101.54-12.5 100.39-13.35L100.39-13.35 96.84-15.95Q95.64-16.85 94.74-17.75 93.84-18.65 93.24-19.7 92.64-20.75 92.31-22 91.99-23.25 91.99-24.8L91.99-24.8Q91.99-27 92.89-28.73 93.79-30.45 95.39-31.63 96.99-32.8 99.14-33.43 101.29-34.05 103.84-34.05ZM114.03-18.7L114.03-24.5 118.94-24.5 120.98-30.25 127.94-31.8 126.48-24.5 131.59-24.5 130.69-18.7 125.39-18.7 123.28-8.1Q123.19-7.85 123.16-7.35 123.14-6.85 123.14-6.6L123.14-6.6Q123.14-6.1 123.44-5.85 123.73-5.6 124.59-5.6L124.59-5.6Q125.03-5.6 125.71-5.73 126.39-5.85 127.03-6L127.03-6Q127.78-6.2 128.53-6.45L128.53-6.45 128.53-0.8Q127.64-0.45 126.48-0.2L126.48-0.2Q125.48 0.05 124.19 0.2 122.89 0.35 121.39 0.35L121.39 0.35Q117.94 0.35 116.48-0.88 115.03-2.1 115.03-4.45L115.03-4.45Q115.03-4.85 115.09-5.38 115.14-5.9 115.23-6.35L115.23-6.35 117.73-18.7 114.03-18.7ZM139.58-5.45L139.58-5.45Q140.33-5.45 141.18-6.55 142.03-7.65 142.81-9.35 143.58-11.05 144.23-13.08 144.88-15.1 145.33-16.9L145.33-16.9 145.83-19.15Q145.28-19.35 144.33-19.35L144.33-19.35Q142.58-19.35 141.46-18.07 140.33-16.8 139.66-15 138.98-13.2 138.71-11.25 138.43-9.3 138.43-8L138.43-8Q138.43-6.95 138.66-6.2 138.88-5.45 139.58-5.45ZM137.18 0.45L137.18 0.45Q135.28 0.45 133.98-0.33 132.68-1.1 131.88-2.33 131.08-3.55 130.71-5.08 130.33-6.6 130.33-8.15L130.33-8.15Q130.33-11.75 131.26-14.83 132.18-17.9 134.01-20.2 135.83-22.5 138.51-23.8 141.18-25.1 144.68-25.1L144.68-25.1Q146.33-25.1 147.66-24.83 148.98-24.55 150.38-23.9L150.38-23.9 154.38-23.65 152.28-12.75Q152.03-11.55 151.91-10.48 151.78-9.4 151.78-8.5L151.78-8.5Q151.78-6.4 152.28-4.93 152.78-3.45 153.78-1.9L153.78-1.9 147.48 0.6Q146.73-0.25 146.21-1.48 145.68-2.7 145.68-4.2L145.68-4.2Q145.68-4.8 145.71-5.55 145.73-6.3 145.83-7.3L145.83-7.3 145.18-5.9Q143.58-2.45 141.56-1 139.53 0.45 137.18 0.45ZM172.13-6.45L173.88-1.15Q173.83-1.15 173.13-0.85 172.43-0.55 171.31-0.23 170.18 0.1 168.76 0.38 167.33 0.65 165.83 0.65L165.83 0.65Q163.28 0.65 161.58-0.1 159.88-0.85 158.83-2.1 157.78-3.35 157.33-4.93 156.88-6.5 156.88-8.15L156.88-8.15Q156.88-11.6 157.81-14.7 158.73-17.8 160.53-20.15 162.33-22.5 164.96-23.88 167.58-25.25 170.98-25.25L170.98-25.25Q172.48-25.25 173.56-24.8 174.63-24.35 175.36-23.58 176.08-22.8 176.53-21.78 176.98-20.75 177.23-19.65L177.23-19.65 171.53-17.45Q171.28-18.05 171.03-18.65 170.78-19.25 169.93-19.25L169.93-19.25Q168.68-19.25 167.73-18.15 166.78-17.05 166.16-15.4 165.53-13.75 165.23-11.83 164.93-9.9 164.93-8.25L164.93-8.25Q164.93-6.55 165.58-5.9 166.23-5.25 167.28-5.25L167.28-5.25Q167.73-5.25 168.41-5.4 169.08-5.55 169.81-5.75 170.53-5.95 171.16-6.15 171.78-6.35 172.13-6.45L172.13-6.45ZM185.98-8L184.43 0 176.73 0 183.63-35.25 191.38-36.25 189.98-28.9Q189.58-26.65 188.45-24.23 187.33-21.8 186.38-19.4L186.38-19.4Q188.28-22.6 190.53-23.85 192.78-25.1 195.53-25.1L195.53-25.1Q198.28-25.1 199.98-23.58 201.68-22.05 201.68-19.05L201.68-19.05Q201.68-16.9 200.8-15.38 199.93-13.85 198.88-12.85L198.88-12.85Q197.63-11.65 196.08-10.9L196.08-10.9Q197.23-7.6 199.23-4.58 201.23-1.55 204.03 1.65L204.03 1.65 197.93 4.95Q194.03 1.35 191.75-3.08 189.48-7.5 188.28-12.2L188.28-12.2 188.38-13.05Q188.78-13.2 189.63-13.6 190.48-14 191.33-14.6 192.18-15.2 192.83-15.98 193.48-16.75 193.48-17.65L193.48-17.65Q193.48-18.35 193.2-18.73 192.93-19.1 192.13-19.1L192.13-19.1Q190.98-19.1 190-18.03 189.03-16.95 188.23-15.3 187.43-13.65 186.88-11.7 186.33-9.75 185.98-8L185.98-8ZM238.12 0L236.77-15.85Q236.72-16.5 236.62-17.88 236.52-19.25 236.52-20.45L236.52-20.45Q236.32-19.85 236.05-19.18 235.77-18.5 235.5-17.85 235.22-17.2 235-16.68 234.77-16.15 234.62-15.9L234.62-15.9 227.02 0 220.47 0 217.27-33.45 225.72-33.45 226.32-16.1Q226.32-15.25 226.35-13.85 226.37-12.45 226.37-11.3L226.37-11.3Q226.52-11.8 226.77-12.5 227.02-13.2 227.27-13.88 227.52-14.55 227.77-15.15 228.02-15.75 228.17-16.1L228.17-16.1 235.72-33.45 243.12-33.45 243.97-15.5Q243.97-15.15 244-14.58 244.02-14 244.05-13.38 244.07-12.75 244.07-12.08 244.07-11.4 244.07-10.85L244.07-10.85Q244.27-11.4 244.52-12.08 244.77-12.75 245.05-13.4 245.32-14.05 245.55-14.63 245.77-15.2 245.92-15.5L245.92-15.5 253.87-33.85 261.67-32 245.02 0 238.12 0ZM256.37-8.15L256.37-8.15Q256.37-11.6 257.3-14.7 258.22-17.8 260.02-20.15 261.82-22.5 264.45-23.88 267.07-25.25 270.47-25.25L270.47-25.25Q274.67-25.25 276.52-23.55 278.37-21.85 278.37-19.1L278.37-19.1Q278.37-17 277.35-15.2 276.32-13.4 274.45-12.05 272.57-10.7 270-9.85 267.42-9 264.37-8.7L264.37-8.7Q264.37-8.5 264.35-8.18 264.32-7.85 264.32-7.6L264.32-7.6Q264.32-6.35 265.02-5.8 265.72-5.25 266.77-5.25L266.77-5.25Q267.47-5.25 268.7-5.55 269.92-5.85 271.17-6.25L271.17-6.25Q272.62-6.7 274.22-7.3L274.22-7.3 275.92-2.2Q274.22-1.35 272.42-0.75L272.42-0.75Q270.87-0.2 269 0.23 267.12 0.65 265.32 0.65L265.32 0.65Q262.77 0.65 261.07-0.1 259.37-0.85 258.32-2.1 257.27-3.35 256.82-4.93 256.37-6.5 256.37-8.15ZM269.27-19.45L269.27-19.45Q267.97-19.45 266.87-17.98 265.77-16.5 265.17-14.15L265.17-14.15Q267.87-14.5 269.3-15.73 270.72-16.95 270.72-18.1L270.72-18.1Q270.72-19.45 269.27-19.45ZM303.37-16.5L303.37-16.5Q303.37-12.9 302.44-9.83 301.52-6.75 299.69-4.45 297.87-2.15 295.19-0.85 292.52 0.45 289.07 0.45L289.07 0.45Q286.67 0.45 284.34-0.35 282.02-1.15 279.57-2.4L279.57-2.4 285.92-35.25 293.82-36.25 292.22-28.1Q291.87-26.4 291.24-24.58 290.62-22.75 289.77-20.65L289.77-20.65Q292.47-25.1 296.52-25.1L296.52-25.1Q298.37-25.1 299.69-24.33 301.02-23.55 301.82-22.33 302.62-21.1 302.99-19.55 303.37-18 303.37-16.5ZM294.12-19.2L294.12-19.2Q293.37-19.2 292.54-18.15 291.72-17.1 290.94-15.4 290.17-13.7 289.49-11.63 288.82-9.55 288.37-7.55L288.37-7.55 287.87-5.5Q288.52-5.3 289.37-5.3L289.37-5.3Q291.12-5.3 292.27-6.58 293.42-7.85 294.09-9.65 294.77-11.45 295.04-13.4 295.32-15.35 295.32-16.65L295.32-16.65Q295.32-17.7 295.07-18.45 294.82-19.2 294.12-19.2ZM315.81 0L322.31-33.7 327.51-33.3Q329.11-33.65 331.04-33.85 332.96-34.05 334.81-34.05L334.81-34.05Q340.91-34.05 343.66-31.05 346.41-28.05 346.41-22.65L346.41-22.65Q346.41-17.7 345.41-13.55 344.41-9.4 342.01-6.35 339.61-3.3 335.66-1.6 331.71 0.1 325.86 0.1L325.86 0.1Q323.41 0.1 321.41 0.05 319.41 0 318.86 0L318.86 0 315.81 0ZM333.16-27.95L333.16-27.95Q332.01-27.95 331.09-27.88 330.16-27.8 329.26-27.55L329.26-27.55 325.16-6.25 327.26-6.25Q330.06-6.25 332.06-7.5 334.06-8.75 335.34-10.9 336.61-13.05 337.19-15.88 337.76-18.7 337.76-21.85L337.76-21.85Q337.76-23.15 337.54-24.25 337.31-25.35 336.76-26.18 336.21-27 335.34-27.48 334.46-27.95 333.16-27.95ZM349.11-8.15L349.11-8.15Q349.11-11.6 350.04-14.7 350.96-17.8 352.76-20.15 354.56-22.5 357.19-23.88 359.81-25.25 363.21-25.25L363.21-25.25Q367.41-25.25 369.26-23.55 371.11-21.85 371.11-19.1L371.11-19.1Q371.11-17 370.09-15.2 369.06-13.4 367.19-12.05 365.31-10.7 362.74-9.85 360.16-9 357.11-8.7L357.11-8.7Q357.11-8.5 357.09-8.18 357.06-7.85 357.06-7.6L357.06-7.6Q357.06-6.35 357.76-5.8 358.46-5.25 359.51-5.25L359.51-5.25Q360.21-5.25 361.44-5.55 362.66-5.85 363.91-6.25L363.91-6.25Q365.36-6.7 366.96-7.3L366.96-7.3 368.66-2.2Q366.96-1.35 365.16-0.75L365.16-0.75Q363.61-0.2 361.74 0.23 359.86 0.65 358.06 0.65L358.06 0.65Q355.51 0.65 353.81-0.1 352.11-0.85 351.06-2.1 350.01-3.35 349.56-4.93 349.11-6.5 349.11-8.15ZM362.01-19.45L362.01-19.45Q360.71-19.45 359.61-17.98 358.51-16.5 357.91-14.15L357.91-14.15Q360.61-14.5 362.04-15.73 363.46-16.95 363.46-18.1L363.46-18.1Q363.46-19.45 362.01-19.45ZM388.41-23.4L395.11-25.05Q395.91-23.45 396.21-21.93 396.51-20.4 396.51-19.25L396.51-19.25Q396.51-17 396.01-14.63 395.51-12.25 394.61-10.05 393.71-7.85 392.41-5.93 391.11-4 389.46-2.65L389.46-2.65Q387.61-1.05 385.51-0.35 383.41 0.35 380.26 0.35L380.26 0.35Q376.96 0.35 375.01-1.18 373.06-2.7 373.06-5.85L373.06-5.85Q373.06-6.15 373.11-6.7 373.16-7.25 373.23-7.83 373.31-8.4 373.38-8.95 373.46-9.5 373.51-9.85L373.51-9.85 376.36-24.5 383.96-24.5 381.11-9.65Q381.01-9.25 380.91-8.35 380.81-7.45 380.81-7.05L380.81-7.05Q380.81-6.25 381.18-5.75 381.56-5.25 382.26-5.25L382.26-5.25Q383.46-5.25 384.66-6.65 385.86-8.05 386.81-10.18 387.76-12.3 388.33-14.83 388.91-17.35 388.91-19.55L388.91-19.55Q388.91-20.3 388.78-21.43 388.66-22.55 388.41-23.4L388.41-23.4ZM398.46-8.15L398.46-8.15Q398.46-11.6 399.38-14.7 400.31-17.8 402.11-20.15 403.91-22.5 406.53-23.88 409.16-25.25 412.56-25.25L412.56-25.25Q416.75-25.25 418.61-23.55 420.46-21.85 420.46-19.1L420.46-19.1Q420.46-17 419.43-15.2 418.41-13.4 416.53-12.05 414.66-10.7 412.08-9.85 409.5-9 406.46-8.7L406.46-8.7Q406.46-8.5 406.43-8.18 406.41-7.85 406.41-7.6L406.41-7.6Q406.41-6.35 407.11-5.8 407.81-5.25 408.86-5.25L408.86-5.25Q409.56-5.25 410.78-5.55 412-5.85 413.25-6.25L413.25-6.25Q414.71-6.7 416.31-7.3L416.31-7.3 418-2.2Q416.31-1.35 414.5-0.75L414.5-0.75Q412.96-0.2 411.08 0.23 409.21 0.65 407.41 0.65L407.41 0.65Q404.86 0.65 403.16-0.1 401.46-0.85 400.41-2.1 399.36-3.35 398.91-4.93 398.46-6.5 398.46-8.15ZM411.36-19.45L411.36-19.45Q410.06-19.45 408.96-17.98 407.86-16.5 407.25-14.15L407.25-14.15Q409.96-14.5 411.38-15.73 412.81-16.95 412.81-18.1L412.81-18.1Q412.81-19.45 411.36-19.45ZM433.55-6.35L433.55-1Q432.65-0.65 431.65-0.4L431.65-0.4Q430.8-0.15 429.7 0.03 428.6 0.2 427.45 0.2L427.45 0.2Q424.65 0.2 423.28-1.1 421.9-2.4 421.9-4.6L421.9-4.6Q421.9-4.95 421.95-5.35 422-5.75 422.1-6.15L422.1-6.15 427.75-35.25 435.55-36.25 430.15-7.95Q430.05-7.3 430-7.1 429.95-6.9 429.95-6.65L429.95-6.65Q429.95-6.3 430.08-6.03 430.2-5.75 430.7-5.75L430.7-5.75Q431-5.75 431.45-5.83 431.9-5.9 432.35-6.03 432.8-6.15 433.13-6.25 433.45-6.35 433.55-6.35L433.55-6.35ZM450.35-25.25L450.35-25.25Q452.9-25.25 454.63-24.48 456.35-23.7 457.38-22.45 458.4-21.2 458.85-19.6 459.3-18 459.3-16.35L459.3-16.35Q459.3-12.85 458.38-9.78 457.45-6.7 455.65-4.38 453.85-2.05 451.23-0.7 448.6 0.65 445.2 0.65L445.2 0.65Q442.65 0.65 440.95-0.1 439.25-0.85 438.2-2.1 437.15-3.35 436.7-4.93 436.25-6.5 436.25-8.15L436.25-8.15Q436.25-11.6 437.18-14.7 438.1-17.8 439.9-20.15 441.7-22.5 444.33-23.88 446.95-25.25 450.35-25.25ZM449.3-19.65L449.3-19.65Q448.1-19.65 447.15-18.48 446.2-17.3 445.58-15.53 444.95-13.75 444.63-11.68 444.3-9.6 444.3-7.8L444.3-7.8Q444.3-6.3 444.83-5.63 445.35-4.95 446.25-4.95L446.25-4.95Q447.45-4.95 448.38-6.13 449.3-7.3 449.93-9.08 450.55-10.85 450.88-12.9 451.2-14.95 451.2-16.7L451.2-16.7Q451.2-18.25 450.68-18.95 450.15-19.65 449.3-19.65ZM459.75 11.1L464.35-12.8Q464.6-14.05 464.72-15.13 464.85-16.2 464.85-17.1L464.85-17.1Q464.85-19.45 464.22-20.85 463.6-22.25 463.3-22.75L463.3-22.75 469.6-25.2Q470.3-24.4 470.65-23.33 471-22.25 471-21.05L471-21.05Q471-20.5 470.95-19.73 470.9-18.95 470.65-17.45L470.65-17.45 471.3-18.85Q472.9-22.35 474.92-23.73 476.95-25.1 479.3-25.1L479.3-25.1Q481.15-25.1 482.47-24.33 483.8-23.55 484.6-22.33 485.4-21.1 485.77-19.55 486.15-18 486.15-16.5L486.15-16.5Q486.15-12.9 485.22-9.83 484.3-6.75 482.47-4.45 480.65-2.15 477.97-0.85 475.3 0.45 471.8 0.45L471.8 0.45Q471.15 0.45 470.57 0.4 470 0.35 469.45 0.25L469.45 0.25 467.55 10.1 459.75 11.1ZM471-7.15L470.6-5.5Q471.25-5.3 472.15-5.3L472.15-5.3Q473.85-5.3 475-6.58 476.15-7.85 476.82-9.65 477.5-11.45 477.77-13.4 478.05-15.35 478.05-16.65L478.05-16.65Q478.05-17.7 477.82-18.45 477.6-19.2 476.9-19.2L476.9-19.2Q476.15-19.2 475.32-18.15 474.5-17.1 473.7-15.4 472.9-13.7 472.2-11.53 471.5-9.35 471-7.15L471-7.15ZM488.35-8.15L488.35-8.15Q488.35-11.6 489.27-14.7 490.2-17.8 492-20.15 493.8-22.5 496.42-23.88 499.05-25.25 502.45-25.25L502.45-25.25Q506.65-25.25 508.5-23.55 510.35-21.85 510.35-19.1L510.35-19.1Q510.35-17 509.32-15.2 508.3-13.4 506.42-12.05 504.55-10.7 501.97-9.85 499.4-9 496.35-8.7L496.35-8.7Q496.35-8.5 496.32-8.18 496.3-7.85 496.3-7.6L496.3-7.6Q496.3-6.35 497-5.8 497.7-5.25 498.75-5.25L498.75-5.25Q499.45-5.25 500.67-5.55 501.9-5.85 503.15-6.25L503.15-6.25Q504.6-6.7 506.2-7.3L506.2-7.3 507.9-2.2Q506.2-1.35 504.4-0.75L504.4-0.75Q502.85-0.2 500.97 0.23 499.1 0.65 497.3 0.65L497.3 0.65Q494.75 0.65 493.05-0.1 491.35-0.85 490.3-2.1 489.25-3.35 488.8-4.93 488.35-6.5 488.35-8.15ZM501.25-19.45L501.25-19.45Q499.95-19.45 498.85-17.98 497.75-16.5 497.15-14.15L497.15-14.15Q499.85-14.5 501.27-15.73 502.7-16.95 502.7-18.1L502.7-18.1Q502.7-19.45 501.25-19.45ZM533.19-23.25L529.09-16.75Q528.54-17.3 527.89-17.75 527.24-18.2 526.24-18.2L526.24-18.2Q525.54-18.2 524.92-17.68 524.29-17.15 523.77-16.3 523.24-15.45 522.84-14.38 522.44-13.3 522.19-12.2L522.19-12.2 519.79 0 512.04 0 514.59-12.8Q514.84-14.05 514.97-15.13 515.09-16.2 515.09-17.1L515.09-17.1Q515.09-19.45 514.47-20.85 513.84-22.25 513.54-22.75L513.54-22.75 519.84-25.2Q520.54-24.4 520.89-23.33 521.24-22.25 521.24-21.05L521.24-21.05Q521.24-20.5 521.17-19.7 521.09-18.9 520.89-17.3L520.89-17.3Q522.14-21.55 523.94-23.33 525.74-25.1 528.39-25.1L528.39-25.1Q529.84-25.1 531.07-24.68 532.29-24.25 533.19-23.25L533.19-23.25Z" opacity="1" transform="matrix(1,0,0,1,0,0)" fill="#3b3a7d" class="slogan-text-1" data-fill-palette-color="secondary" id="text-1"></path></svg></g></svg></g></svg></g></svg></g></svg></g></svg></g></svg></g><defs></defs></svg><rect width="320" height="360" fill="none" stroke="none" visibility="hidden"></rect></g></svg></g></svg>